<svg width="51" height="49" viewBox="0 0 51 49" fill="none" xmlns="http://www.w3.org/2000/svg">
<path d="M49.8416 24.0466L28.5313 2.74738L27.1029 1.31898C26.7774 0.995665 26.3373 0.814209 25.8785 0.814209C25.4198 0.814209 24.9796 0.995665 24.6542 1.31898L1.91548 24.0466C1.58199 24.3788 1.31843 24.7745 1.14035 25.2102C0.96227 25.6459 0.873285 26.1129 0.878647 26.5836C0.900707 28.5249 2.51663 30.0746 4.45794 30.0746H6.80185V48.0372H44.9552V30.0746H47.3487C48.2918 30.0746 49.1797 29.7051 49.8471 29.0378C50.1757 28.7103 50.436 28.3208 50.613 27.8919C50.7901 27.4631 50.8803 27.0034 50.8784 26.5395C50.8784 25.6019 50.5089 24.714 49.8416 24.0466V24.0466ZM28.967 44.0664H22.7901V32.8156H28.967V44.0664ZM40.9843 26.1038V44.0664H32.4966V31.492C32.4966 30.2732 31.5094 29.286 30.2906 29.286H21.4665C20.2476 29.286 19.2604 30.2732 19.2604 31.492V44.0664H10.7727V26.1038H5.47823L25.884 5.7145L27.158 6.98848L46.2843 26.1038H40.9843Z" fill="white"/>
</svg>
