<svg width="20" height="20" viewBox="0 0 38 44" fill="none" xmlns="http://www.w3.org/2000/svg">
    <path d="M17.498 18.6375C19.2092 20.3491 20.2605 22.6103 20.4664 25.0217C20.6722 27.4332 20.0193 29.8398 18.623 31.8167L18.3293 32.2125L27.1147 41L27.271 41.1812C27.5 41.4914 27.6101 41.8735 27.5813 42.258C27.5525 42.6424 27.3867 43.0038 27.1141 43.2765C26.8415 43.5491 26.4801 43.7149 26.0956 43.7437C25.7111 43.7724 25.3291 43.6623 25.0189 43.4333L24.8376 43.2771L15.9689 34.4104C13.8524 35.8252 11.2857 36.4029 8.7672 36.0316C6.24867 35.6602 3.958 34.3662 2.33996 32.4007C0.721926 30.4353 -0.108014 27.9387 0.0112855 25.3958C0.130585 22.8528 1.19061 20.4449 2.98555 18.6396C4.9101 16.7153 7.52023 15.6342 10.2418 15.6342C12.9634 15.6342 15.5735 16.7153 17.498 18.6396V18.6375ZM21.0814 0C22.3239 0.000541574 23.5153 0.494352 24.3939 1.37292L30.2522 7.22708L36.1022 13.0854C36.9793 13.9646 37.473 15.1562 37.473 16.3979V36.9792C37.473 38.2224 36.9792 39.4146 36.1001 40.2937C35.221 41.1728 34.0287 41.6667 32.7855 41.6667H29.6397C29.5601 41.0401 29.3205 40.4446 28.9439 39.9375L28.6939 39.6396L27.596 38.5396L32.7835 38.5417C33.1979 38.5417 33.5953 38.377 33.8883 38.084C34.1813 37.791 34.346 37.3936 34.346 36.9792V16.6729H25.5001C24.3127 16.6731 23.1695 16.2226 22.3013 15.4125C21.4332 14.6024 20.9048 13.4929 20.823 12.3083L20.8126 11.9875V3.125H8.83346C8.41906 3.125 8.02164 3.28962 7.72861 3.58265C7.43558 3.87567 7.27096 4.2731 7.27096 4.6875V13.8979C6.17805 14.1572 5.12588 14.5651 4.14388 15.1104L4.14596 4.6875C4.14596 3.4443 4.63982 2.25201 5.5189 1.37294C6.39798 0.49386 7.59026 0 8.83346 0H21.0814ZM5.26263 20.9167C4.59265 21.5669 4.05866 22.3439 3.69174 23.2024C3.32482 24.0609 3.1323 24.9839 3.12537 25.9175C3.11843 26.8511 3.29724 27.7768 3.65137 28.6407C4.0055 29.5045 4.52789 30.2894 5.18815 30.9495C5.8484 31.6096 6.63334 32.1318 7.4973 32.4858C8.36125 32.8397 9.28697 33.0184 10.2206 33.0112C11.1542 33.0041 12.0771 32.8114 12.9355 32.4443C13.794 32.0772 14.5709 31.543 15.221 30.8729C16.5324 29.5505 17.2665 27.7623 17.2626 25.8999C17.2587 24.0374 16.5171 22.2523 15.2002 20.9354C13.8832 19.6184 12.0982 18.8768 10.2357 18.8729C8.37324 18.869 6.58509 19.6031 5.26263 20.9146V20.9167ZM23.9376 5.33333V11.9875C23.9376 12.7792 24.5251 13.4312 25.2876 13.5354L25.5001 13.55L32.148 13.5479L23.9376 5.33333Z" fill="#BF0E0A"/>
</svg>
