<svg width="75" height="37" viewBox="0 0 75 37" fill="none" xmlns="http://www.w3.org/2000/svg">
<path d="M11.3751 20.2632C11.143 20.2632 10.9204 20.3602 10.7563 20.533C10.5922 20.7057 10.5001 20.94 10.5001 21.1842V24.8685C10.5001 25.1127 10.5922 25.347 10.7563 25.5197C10.9204 25.6925 11.143 25.7895 11.3751 25.7895C11.6071 25.7895 11.8297 25.6925 11.9938 25.5197C12.1579 25.347 12.2501 25.1127 12.2501 24.8685V24.5627H12.8328C13.3744 24.5627 13.8939 24.3362 14.2769 23.933C14.6599 23.5299 14.8751 22.9831 14.8751 22.4129C14.8751 21.8428 14.6599 21.296 14.2769 20.8928C13.8939 20.4897 13.3744 20.2632 12.8328 20.2632H11.3751ZM12.8328 22.7206H12.2501V22.1053H12.8328C12.9103 22.1053 12.9847 22.1377 13.0395 22.1954C13.0943 22.2531 13.1251 22.3313 13.1251 22.4129C13.1251 22.4945 13.0943 22.5728 13.0395 22.6305C12.9847 22.6881 12.9103 22.7206 12.8328 22.7206V22.7206Z" fill="#BF0E0A"/>
<path d="M21 21.1842C21 20.94 21.0922 20.7057 21.2563 20.533C21.4204 20.3602 21.6429 20.2632 21.875 20.2632H23.625C23.8571 20.2632 24.0796 20.3602 24.2437 20.533C24.4078 20.7057 24.5 20.94 24.5 21.1842C24.5 21.4285 24.4078 21.6628 24.2437 21.8355C24.0796 22.0083 23.8571 22.1053 23.625 22.1053H22.75V22.7224H23.625C23.8571 22.7224 24.0796 22.8194 24.2437 22.9922C24.4078 23.1649 24.5 23.3992 24.5 23.6435C24.5 23.8877 24.4078 24.122 24.2437 24.2947C24.0796 24.4675 23.8571 24.5645 23.625 24.5645H22.75V24.8666C22.7502 24.9876 22.7278 25.1074 22.6841 25.2192C22.6403 25.3311 22.576 25.4327 22.495 25.5184C22.3312 25.6915 22.1088 25.789 21.8768 25.7895C21.6447 25.79 21.4219 25.6934 21.2575 25.521C21.0931 25.3487 21.0005 25.1146 21 24.8703V21.1842Z" fill="#BF0E0A"/>
<path d="M16.6233 20.2632C16.3912 20.2632 16.1687 20.3602 16.0046 20.533C15.8405 20.7057 15.7483 20.94 15.7483 21.1842V24.8685C15.7483 25.1127 15.8405 25.347 16.0046 25.5197C16.1687 25.6925 16.3912 25.7895 16.6233 25.7895H17.5C18.1962 25.7895 18.8639 25.4984 19.3562 24.9802C19.8485 24.462 20.125 23.7592 20.125 23.0263C20.125 22.2935 19.8485 21.5907 19.3562 21.0725C18.8639 20.5543 18.1962 20.2632 17.5 20.2632H16.625H16.6233ZM17.4983 23.9474V22.1053H17.5C17.7321 22.1053 17.9547 22.2023 18.1188 22.3751C18.2829 22.5478 18.375 22.7821 18.375 23.0263C18.375 23.2706 18.2829 23.5049 18.1188 23.6776C17.9547 23.8504 17.7321 23.9474 17.5 23.9474H17.4983Z" fill="#BF0E0A"/>
<path d="M7.00002 7.36841C7.00002 6.3913 7.36877 5.45421 8.02515 4.76328C8.68152 4.07236 9.57176 3.6842 10.5 3.6842H18.5255C19.2215 3.68485 19.8887 3.97639 20.3805 4.49473L27.2318 11.7047C27.7242 12.2224 28.0012 12.9248 28.0018 13.6574V16.73C28.5129 16.9211 28.9552 17.2741 29.2679 17.7405C29.5806 18.2069 29.7485 18.7638 29.7483 19.3347V26.7087C29.7483 27.2798 29.5803 27.8369 29.2672 28.3033C28.9541 28.7698 28.5114 29.1227 28 29.3134V29.4737C28 30.4508 27.6313 31.3879 26.9749 32.0788C26.3185 32.7697 25.4283 33.1579 24.5 33.1579H10.5C9.57176 33.1579 8.68152 32.7697 8.02515 32.0788C7.36877 31.3879 7.00002 30.4508 7.00002 29.4737V29.3134C6.48862 29.1227 6.04593 28.7698 5.73286 28.3033C5.41979 27.8369 5.25172 27.2798 5.25177 26.7087V19.3347C5.25185 18.7634 5.42017 18.2061 5.73357 17.7397C6.04698 17.2732 6.49004 16.9204 7.00177 16.73V7.36841H7.00002ZM26.25 14.7368H20.125C19.4288 14.7368 18.7612 14.4457 18.2689 13.9275C17.7766 13.4093 17.5 12.7065 17.5 11.9737V5.52631H10.5C10.0359 5.52631 9.59077 5.72039 9.26258 6.06585C8.9344 6.41131 8.75002 6.87986 8.75002 7.36841V16.5716H26.25V14.7368ZM8.75002 29.4718C8.74979 29.7139 8.79489 29.9536 8.88273 30.1773C8.97057 30.401 9.09944 30.6043 9.26197 30.7756C9.42449 30.9468 9.61749 31.0827 9.82992 31.1754C10.0424 31.2681 10.2701 31.3158 10.5 31.3158H24.5C24.73 31.3158 24.9577 31.2681 25.1701 31.1754C25.3826 31.0827 25.5756 30.9468 25.7381 30.7756C25.9006 30.6043 26.0295 30.401 26.1173 30.1773C26.2052 29.9536 26.2503 29.7139 26.25 29.4718H8.75002ZM19.25 5.90763V11.9737C19.25 12.218 19.3422 12.4522 19.5063 12.625C19.6704 12.7977 19.893 12.8947 20.125 12.8947H25.8878L19.25 5.90763V5.90763ZM7.87677 18.4137C7.64471 18.4137 7.42215 18.5107 7.25805 18.6834C7.09396 18.8562 7.00177 19.0905 7.00177 19.3347V26.7087C7.00177 26.953 7.09396 27.1872 7.25805 27.36C7.42215 27.5327 7.64471 27.6297 7.87677 27.6297H27.125C27.3571 27.6297 27.5797 27.5327 27.7437 27.36C27.9078 27.1872 28 26.953 28 26.7087V19.3347C28 19.0905 27.9078 18.8562 27.7437 18.6834C27.5797 18.5107 27.3571 18.4137 27.125 18.4137H7.87502H7.87677Z" fill="#BF0E0A"/>
<path fill-rule="evenodd" clip-rule="evenodd" d="M37.219 12.4336C37.2887 12.3591 37.3714 12.3 37.4625 12.2596C37.5537 12.2193 37.6513 12.1985 37.75 12.1985C37.8486 12.1985 37.9463 12.2193 38.0374 12.2596C38.1286 12.3 38.2113 12.3591 38.281 12.4336L42.781 17.2336C42.8508 17.3079 42.9063 17.3962 42.9441 17.4934C42.9819 17.5906 43.0013 17.6948 43.0013 17.8C43.0013 17.9052 42.9819 18.0094 42.9441 18.1066C42.9063 18.2038 42.8508 18.2921 42.781 18.3664L38.281 23.1664C38.1402 23.3166 37.9492 23.401 37.75 23.401C37.5508 23.401 37.3598 23.3166 37.219 23.1664C37.0782 23.0162 36.999 22.8124 36.999 22.6C36.999 22.3875 37.0782 22.1838 37.219 22.0336L41.1895 17.8L37.219 13.5664C37.1492 13.4921 37.0937 13.4038 37.0559 13.3066C37.0181 13.2094 36.9987 13.1052 36.9987 13C36.9987 12.8947 37.0181 12.7906 37.0559 12.6934C37.0937 12.5962 37.1492 12.5079 37.219 12.4336Z" fill="#BF0E0A"/>
<path fill-rule="evenodd" clip-rule="evenodd" d="M31 17.8C31 17.5878 31.079 17.3843 31.2197 17.2343C31.3603 17.0843 31.5511 17 31.75 17H41.5C41.6989 17 41.8897 17.0843 42.0303 17.2343C42.171 17.3843 42.25 17.5878 42.25 17.8C42.25 18.0122 42.171 18.2157 42.0303 18.3657C41.8897 18.5157 41.6989 18.6 41.5 18.6H31.75C31.5511 18.6 31.3603 18.5157 31.2197 18.3657C31.079 18.2157 31 18.0122 31 17.8Z" fill="#BF0E0A"/>
<path d="M71.575 18.6765H66.8039V16.2909H71.575V18.6765ZM71.575 20.0396H66.8039V22.4252H71.575V20.0396ZM71.575 8.79345H66.8039V11.179H71.575V8.79351V8.79345ZM71.575 12.5422H66.8039V14.9277H71.575V12.5422ZM71.575 23.7883H66.8039V26.1739H71.575V23.7882V23.7883ZM74.8704 28.4913C74.7341 29.2001 73.8821 29.2171 73.313 29.241H62.7144V32.3081H60.5981L45 29.5817V5.72976L60.6901 3H62.7144V5.71611H72.9484C73.5244 5.73996 74.1582 5.69906 74.6591 6.04324C75.0102 6.54761 74.9761 7.18834 75 7.76765L74.9863 25.5093C74.9693 26.501 75.0783 27.5132 74.8704 28.4913V28.4913ZM57.4968 23.1442C56.5563 21.2358 55.5987 19.341 54.6615 17.4325C55.5884 15.5752 56.5018 13.7111 57.4117 11.8469C56.6381 11.8844 55.8644 11.9321 55.0943 11.9867C54.5183 13.3873 53.847 14.7505 53.3971 16.1989C52.9779 14.8323 52.4225 13.5168 51.9147 12.1843C51.1649 12.2252 50.4152 12.2695 49.6655 12.3138C50.4561 14.0587 51.2979 15.7796 52.0646 17.5348C51.1615 19.2387 50.3164 20.9666 49.4405 22.6807C50.1868 22.7114 50.9332 22.7421 51.6795 22.7523C52.2112 21.396 52.8723 20.0907 53.3358 18.7071C53.7516 20.193 54.457 21.5664 55.0363 22.9874C55.8577 23.0454 56.6756 23.0965 57.4969 23.1442H57.4968ZM73.3746 7.33465H62.7144V8.79345H65.4408V11.179H62.7144V12.5422H65.4408V14.9277H62.7144V16.2909H65.4408V18.6765H62.7144V20.0396H65.4408V22.4252H62.7144V23.7883H65.4408V26.1739H62.7144V27.7499H73.3746V7.33465Z" fill="#BF0E0A"/>
</svg>
