<svg width="50" height="50" viewBox="0 0 50 50" fill="none" xmlns="http://www.w3.org/2000/svg">
    <path d="M43.75 35.4167H32.5062C30.8314 35.4165 29.1813 35.0126 27.6958 34.239C26.2103 33.4654 24.9333 32.3451 23.9729 30.9729L22.9021 29.4437C21.9417 28.0716 20.6647 26.9512 19.1792 26.1777C17.6937 25.4041 16.0436 25.0001 14.3687 25H6.25" stroke="#BF0E0A" stroke-width="2" stroke-linecap="round" stroke-linejoin="round"/>
    <path d="M43.75 14.5833H32.5104C30.8345 14.5833 29.1833 14.9876 27.697 15.7619C26.2107 16.5362 24.9332 17.6578 23.9729 19.0313L22.9104 20.5521C21.9503 21.9253 20.6731 23.0466 19.1872 23.821C17.7013 24.5953 16.0506 24.9997 14.375 25H6.25" stroke="#BF0E0A" stroke-width="2" stroke-linecap="round" stroke-linejoin="round"/>
    <path d="M37.5 20.8333L43.75 14.5833L37.5 8.33334" stroke="#BF0E0A" stroke-width="2" stroke-linecap="round" stroke-linejoin="round"/>
    <path d="M37.5 41.6667L43.75 35.4167L37.5 29.1667" stroke="#BF0E0A" stroke-width="2" stroke-linecap="round" stroke-linejoin="round"/>
</svg>
