<svg width="50" height="50" viewBox="0 0 50 50" fill="none" xmlns="http://www.w3.org/2000/svg">
<path fill-rule="evenodd" clip-rule="evenodd" d="M23.8938 16.0814C24.0389 15.9358 24.2113 15.8204 24.4012 15.7416C24.591 15.6629 24.7945 15.6223 25 15.6223C25.2055 15.6223 25.409 15.6629 25.5989 15.7416C25.7887 15.8204 25.9611 15.9358 26.1063 16.0814L32.3563 22.3314C32.5015 22.4766 32.6168 22.6491 32.6954 22.8389C32.774 23.0287 32.8145 23.2322 32.8145 23.4376C32.8145 23.6431 32.774 23.8465 32.6954 24.0363C32.6168 24.2261 32.5015 24.3986 32.3563 24.5439C32.211 24.6891 32.0385 24.8044 31.8487 24.883C31.6589 24.9616 31.4555 25.0021 31.25 25.0021C31.0446 25.0021 30.8411 24.9616 30.6513 24.883C30.4615 24.8044 30.289 24.6891 30.1438 24.5439L26.5625 20.9595V32.8126C26.5625 33.227 26.3979 33.6244 26.1049 33.9175C25.8118 34.2105 25.4144 34.3751 25 34.3751C24.5856 34.3751 24.1882 34.2105 23.8952 33.9175C23.6021 33.6244 23.4375 33.227 23.4375 32.8126V20.9595L19.8563 24.5439C19.5629 24.8373 19.1649 25.0021 18.75 25.0021C18.3351 25.0021 17.9372 24.8373 17.6438 24.5439C17.3504 24.2505 17.1855 23.8525 17.1855 23.4376C17.1855 23.0227 17.3504 22.6248 17.6438 22.3314L23.8938 16.0814Z" fill="black"/>
<path d="M13.7688 10.4437C16.8921 7.75042 20.8758 6.26293 25 6.25C33.4062 6.25 40.3844 12.5 41.1438 20.5594C46.1188 21.2625 50 25.4281 50 30.5406C50 36.1531 45.3188 40.625 39.6469 40.625H11.8156C5.3375 40.625 0 35.5187 0 29.1187C0 23.6094 3.95625 19.0469 9.19375 17.8906C9.64062 15.1937 11.375 12.5062 13.7688 10.4437ZM15.8094 12.8094C13.4438 14.85 12.2062 17.3094 12.2062 19.2344V20.6344L10.8156 20.7875C6.45 21.2656 3.125 24.85 3.125 29.1187C3.125 33.7031 6.96875 37.5 11.8156 37.5H39.6469C43.6875 37.5 46.875 34.3375 46.875 30.5406C46.875 26.7406 43.6875 23.5781 39.6469 23.5781H38.0844V22.0156C38.0875 15.0781 32.275 9.375 25 9.375C21.6246 9.38848 18.3651 10.6076 15.8094 12.8125V12.8094Z" fill="black"/>
</svg>
