<svg width="100" height="100" viewBox="0 0 76 78" fill="none" xmlns="http://www.w3.org/2000/svg">
    <path fill-rule="evenodd" clip-rule="evenodd" d="M23.1609 41.3309C23.1552 41.161 23.183 40.9938 23.2429 40.8389C23.3028 40.684 23.3934 40.5444 23.5097 40.4281C23.6259 40.3119 23.7655 40.2212 23.9204 40.1614C24.0753 40.1015 24.2425 40.0736 24.4124 40.0793L35.3726 40.4329C35.5425 40.4382 35.7118 40.4769 35.8709 40.5469C36.03 40.6169 36.1758 40.7167 36.2998 40.8407C36.4238 40.9647 36.5236 41.1105 36.5936 41.2696C36.6636 41.4287 36.7023 41.598 36.7076 41.7679L37.0612 52.7281C37.0722 53.0711 36.9466 53.3956 36.7119 53.6303C36.4772 53.8651 36.1526 53.9907 35.8096 53.9796C35.4666 53.9686 35.1332 53.8217 34.8829 53.5713C34.6325 53.321 34.4856 52.9876 34.4746 52.6446L34.1645 42.976L24.4959 42.6659C24.326 42.6607 24.1566 42.6219 23.9975 42.5519C23.8384 42.482 23.6927 42.3821 23.5687 42.2581C23.4447 42.1341 23.3448 41.9883 23.2748 41.8292C23.2049 41.6701 23.1661 41.5008 23.1609 41.3309Z" fill="#BF0E0A"/>
    <path fill-rule="evenodd" clip-rule="evenodd" d="M22.1561 54.9844C21.906 54.7344 21.7593 54.4015 21.7483 54.0589C21.7372 53.7163 21.8627 53.3922 22.0971 53.1577L33.5876 41.6673C33.822 41.4328 34.1462 41.3074 34.4888 41.3184C34.8313 41.3295 35.1643 41.4761 35.4143 41.7262C35.6644 41.9762 35.8111 42.3092 35.8221 42.6517C35.8332 42.9943 35.7077 43.3185 35.4732 43.5529L23.9828 55.0434C23.7483 55.2778 23.4242 55.4033 23.0816 55.3922C22.739 55.3812 22.4061 55.2345 22.1561 54.9844Z" fill="#BF0E0A"/>
    <path fill-rule="evenodd" clip-rule="evenodd" d="M52.2934 35.8096C52.2991 35.9795 52.2712 36.1467 52.2113 36.3016C52.1515 36.4565 52.0608 36.5961 51.9446 36.7123C51.8283 36.8286 51.6887 36.9193 51.5338 36.9791C51.3789 37.039 51.2117 37.0668 51.0418 37.0611L40.0816 36.7076C39.9117 36.7023 39.7424 36.6636 39.5833 36.5936C39.4242 36.5236 39.2785 36.4238 39.1544 36.2997C39.0304 36.1757 38.9306 36.03 38.8606 35.8709C38.7906 35.7118 38.7519 35.5425 38.7466 35.3726L38.393 24.4124C38.382 24.0694 38.5076 23.7448 38.7423 23.5101C38.9771 23.2754 39.3016 23.1498 39.6446 23.1608C39.9876 23.1719 40.321 23.3188 40.5713 23.5691C40.8217 23.8195 40.9686 24.1528 40.9796 24.4959L41.2897 34.1645L50.9583 34.4746C51.1282 34.4798 51.2976 34.5186 51.4567 34.5885C51.6158 34.6585 51.7615 34.7584 51.8855 34.8824C52.0095 35.0064 52.1094 35.1521 52.1794 35.3112C52.2494 35.4703 52.2881 35.6397 52.2934 35.8096Z" fill="#BF0E0A"/>
    <path fill-rule="evenodd" clip-rule="evenodd" d="M53.2982 22.156C53.5482 22.4061 53.6949 22.739 53.7059 23.0816C53.717 23.4242 53.5915 23.7483 53.3571 23.9827L41.8666 35.4732C41.6322 35.7076 41.308 35.8331 40.9655 35.8221C40.6229 35.811 40.29 35.6643 40.0399 35.4143C39.7899 35.1642 39.6432 34.8313 39.6321 34.4887C39.6211 34.1462 39.7466 33.822 39.981 33.5876L51.4715 22.0971C51.7059 21.8627 52.03 21.7372 52.3726 21.7482C52.7152 21.7593 53.0481 21.906 53.2982 22.156Z" fill="#BF0E0A"/>
</svg>
