<svg width="400" height="400" viewBox="0 0 75 39" fill="none" xmlns="http://www.w3.org/2000/svg">
    <path d="M11.375 20.2632C11.1429 20.2632 10.9204 20.3602 10.7563 20.5329C10.5922 20.7057 10.5 20.9399 10.5 21.1842V24.8684C10.5 25.1127 10.5922 25.347 10.7563 25.5197C10.9204 25.6925 11.1429 25.7895 11.375 25.7895C11.6071 25.7895 11.8296 25.6925 11.9937 25.5197C12.1578 25.347 12.25 25.1127 12.25 24.8684V24.5626H12.8328C13.3744 24.5626 13.8938 24.3362 14.2768 23.933C14.6598 23.5298 14.875 22.9831 14.875 22.4129C14.875 21.8428 14.6598 21.296 14.2768 20.8928C13.8938 20.4897 13.3744 20.2632 12.8328 20.2632H11.375ZM12.8328 22.7205H12.25V22.1053H12.8328C12.9103 22.1053 12.9846 22.1377 13.0394 22.1954C13.0942 22.2531 13.125 22.3313 13.125 22.4129C13.125 22.4945 13.0942 22.5727 13.0394 22.6304C12.9846 22.6881 12.9103 22.7205 12.8328 22.7205Z" fill="#BF0E0A"/>
    <path d="M21 21.1842C21 20.9399 21.0922 20.7057 21.2563 20.5329C21.4203 20.3602 21.6429 20.2632 21.875 20.2632H23.625C23.857 20.2632 24.0796 20.3602 24.2437 20.5329C24.4078 20.7057 24.5 20.9399 24.5 21.1842C24.5 21.4285 24.4078 21.6628 24.2437 21.8355C24.0796 22.0082 23.857 22.1053 23.625 22.1053H22.75V22.7224H23.625C23.857 22.7224 24.0796 22.8194 24.2437 22.9922C24.4078 23.1649 24.5 23.3992 24.5 23.6434C24.5 23.8877 24.4078 24.122 24.2437 24.2947C24.0796 24.4675 23.857 24.5645 23.625 24.5645H22.75V24.8666C22.7502 24.9875 22.7278 25.1074 22.684 25.2192C22.6403 25.331 22.576 25.4327 22.4949 25.5184C22.3312 25.6915 22.1088 25.789 21.8767 25.7895C21.6447 25.79 21.4219 25.6934 21.2575 25.521C21.0931 25.3486 21.0004 25.1146 21 24.8703V21.1842Z" fill="#BF0E0A"/>
    <path d="M16.6232 20.2632C16.3912 20.2632 16.1686 20.3602 16.0045 20.5329C15.8404 20.7057 15.7482 20.9399 15.7482 21.1842V24.8684C15.7482 25.1127 15.8404 25.347 16.0045 25.5197C16.1686 25.6925 16.3912 25.7895 16.6232 25.7895H17.5C18.1962 25.7895 18.8639 25.4984 19.3561 24.9802C19.8484 24.462 20.125 23.7592 20.125 23.0263C20.125 22.2935 19.8484 21.5907 19.3561 21.0725C18.8639 20.5543 18.1962 20.2632 17.5 20.2632H16.625H16.6232ZM17.4982 23.9474V22.1053H17.5C17.732 22.1053 17.9546 22.2023 18.1187 22.375C18.2828 22.5478 18.375 22.7821 18.375 23.0263C18.375 23.2706 18.2828 23.5049 18.1187 23.6776C17.9546 23.8503 17.732 23.9474 17.5 23.9474H17.4982Z" fill="#BF0E0A"/>
    <path d="M6.99999 7.36843C6.99999 6.39132 7.36874 5.45422 8.02512 4.7633C8.68149 4.07238 9.57173 3.68422 10.5 3.68422H18.5255C19.2215 3.68486 19.8887 3.97641 20.3805 4.49475L27.2317 11.7047C27.7242 12.2224 28.0011 12.9248 28.0017 13.6574V16.73C28.5128 16.9211 28.9551 17.2741 29.2679 17.7405C29.5806 18.2069 29.7484 18.7639 29.7482 19.3347V26.7087C29.7483 27.2798 29.5802 27.8369 29.2672 28.3034C28.9541 28.7698 28.5114 29.1227 28 29.3134V29.4737C28 30.4508 27.6312 31.3879 26.9749 32.0788C26.3185 32.7697 25.4283 33.1579 24.5 33.1579H10.5C9.57173 33.1579 8.68149 32.7697 8.02512 32.0788C7.36874 31.3879 6.99999 30.4508 6.99999 29.4737V29.3134C6.48859 29.1227 6.0459 28.7698 5.73283 28.3034C5.41976 27.8369 5.25169 27.2798 5.25174 26.7087V19.3347C5.25182 18.7634 5.42014 18.2061 5.73354 17.7397C6.04695 17.2732 6.49001 16.9205 7.00174 16.73V7.36843H6.99999ZM26.25 14.7369H20.125C19.4288 14.7369 18.7611 14.4457 18.2688 13.9275C17.7766 13.4093 17.5 12.7065 17.5 11.9737V5.52632H10.5C10.0359 5.52632 9.59074 5.7204 9.26255 6.06586C8.93437 6.41133 8.74999 6.87987 8.74999 7.36843V16.5716H26.25V14.7369ZM8.74999 29.4718C8.74976 29.7139 8.79486 29.9537 8.8827 30.1774C8.97054 30.4011 9.09941 30.6044 9.26194 30.7756C9.42446 30.9469 9.61746 31.0827 9.82989 31.1754C10.0423 31.2681 10.27 31.3158 10.5 31.3158H24.5C24.73 31.3158 24.9577 31.2681 25.1701 31.1754C25.3825 31.0827 25.5755 30.9469 25.7381 30.7756C25.9006 30.6044 26.0294 30.4011 26.1173 30.1774C26.2051 29.9537 26.2502 29.7139 26.25 29.4718H8.74999ZM19.25 5.90764V11.9737C19.25 12.218 19.3422 12.4522 19.5063 12.625C19.6704 12.7977 19.8929 12.8947 20.125 12.8947H25.8877L19.25 5.90764ZM7.87674 18.4137C7.64468 18.4137 7.42212 18.5107 7.25802 18.6835C7.09393 18.8562 7.00174 19.0905 7.00174 19.3347V26.7087C7.00174 26.953 7.09393 27.1872 7.25802 27.36C7.42212 27.5327 7.64468 27.6297 7.87674 27.6297H27.125C27.3571 27.6297 27.5796 27.5327 27.7437 27.36C27.9078 27.1872 28 26.953 28 26.7087V19.3347C28 19.0905 27.9078 18.8562 27.7437 18.6835C27.5796 18.5107 27.3571 18.4137 27.125 18.4137H7.87499H7.87674Z" fill="#BF0E0A"/>
    <path fill-rule="evenodd" clip-rule="evenodd" d="M37.219 12.4336C37.2887 12.3591 37.3714 12.3 37.4625 12.2597C37.5537 12.2193 37.6513 12.1986 37.75 12.1986C37.8486 12.1986 37.9463 12.2193 38.0374 12.2597C38.1286 12.3 38.2113 12.3591 38.281 12.4336L42.781 17.2336C42.8508 17.3079 42.9063 17.3962 42.9441 17.4934C42.9819 17.5906 43.0013 17.6948 43.0013 17.8C43.0013 17.9052 42.9819 18.0094 42.9441 18.1066C42.9063 18.2038 42.8508 18.2921 42.781 18.3664L38.281 23.1664C38.1402 23.3166 37.9492 23.401 37.75 23.401C37.5508 23.401 37.3598 23.3166 37.219 23.1664C37.0782 23.0162 36.999 22.8125 36.999 22.6C36.999 22.3876 37.0782 22.1838 37.219 22.0336L41.1895 17.8L37.219 13.5664C37.1492 13.4921 37.0937 13.4038 37.0559 13.3066C37.0181 13.2094 36.9987 13.1052 36.9987 13C36.9987 12.8948 37.0181 12.7906 37.0559 12.6934C37.0937 12.5962 37.1492 12.5079 37.219 12.4336Z" fill="#BF0E0A"/>
    <path fill-rule="evenodd" clip-rule="evenodd" d="M31 17.8C31 17.5878 31.079 17.3844 31.2197 17.2343C31.3603 17.0843 31.5511 17 31.75 17H41.5C41.6989 17 41.8897 17.0843 42.0303 17.2343C42.171 17.3844 42.25 17.5878 42.25 17.8C42.25 18.0122 42.171 18.2157 42.0303 18.3657C41.8897 18.5157 41.6989 18.6 41.5 18.6H31.75C31.5511 18.6 31.3603 18.5157 31.2197 18.3657C31.079 18.2157 31 18.0122 31 17.8Z" fill="#BF0E0A"/>
    <path d="M67.7083 4.77274H47.2917C45.6831 4.77274 44.375 6.19978 44.375 7.95455V30.2273C44.375 31.9821 45.6831 33.4091 47.2917 33.4091H67.7083C69.3169 33.4091 70.625 31.9821 70.625 30.2273V7.95455C70.625 6.19978 69.3169 4.77274 67.7083 4.77274ZM47.2917 30.2273V7.95455H67.7083L67.7113 30.2273H47.2917Z" fill="#BF0E0A"/>
    <path d="M54.5833 22.2727L53.125 20.6818L48.75 27.0455H66.25L58.9583 15.9091L54.5833 22.2727Z" fill="#BF0E0A"/>
</svg>
