<svg width="588" height="246" viewBox="0 0 588 246" fill="none" xmlns="http://www.w3.org/2000/svg">
<path d="M1 241V1H26.5V218H124V241H1Z" fill="#000080"/>
<path d="M170.5 61H146L145.5 239.5H170.5V61Z" fill="#000080"/>
<path d="M211 239.5V61H234.5V80.5C250.905 61.6678 263.463 57.25 289.5 56C343.592 53.6088 368 104 368 130.5V239.5H341.5V130.5C341.5 110.5 324 78.5 289.5 78.5C255 78.5 234.5 107.5 234.5 128.5V239.5H211Z" fill="#000080"/>
<path fill-rule="evenodd" clip-rule="evenodd" d="M561.5 60.5H587V239.5H561.5V214.5C545.32 231.941 533.268 238.452 507 244.5H484.5C458.179 239.015 445.422 233.424 427 218C411.937 200.342 405.792 189.292 400 167V132.5C407.197 109.472 411.705 99.0487 425.5 84C442.643 66.2562 456.566 59.8039 484.5 55.5H507C533.029 61.2386 545.066 68.307 561.5 88.5V60.5ZM507 79.5H484.5C465.125 84.019 454.82 88.2403 439.5 105C429.675 117.624 426.457 126.6 423 144.5C423.002 165.596 426.721 176.623 439.5 195C452.839 209.973 462.55 215.855 484.5 221H507C529.476 215.86 537.732 209.473 550.5 195C561.931 178.779 566.741 168.605 566.5 144.5C563.44 128.057 560.762 119.143 550.5 105C536.377 90.0307 526.837 84.4745 507 79.5Z" fill="#000080"/>
<path d="M234.5 239.5H211V61H234.5V80.5C250.905 61.6678 263.463 57.25 289.5 56C343.592 53.6088 368 104 368 130.5M234.5 239.5C234.5 239.5 234.5 149.5 234.5 128.5M234.5 239.5V128.5M234.5 128.5C234.5 107.5 255 78.5 289.5 78.5C324 78.5 341.5 110.5 341.5 130.5M341.5 130.5C341.5 150.5 341.5 239.5 341.5 239.5M341.5 130.5V239.5M341.5 239.5H368M368 239.5C368 239.5 368 157 368 130.5M368 239.5V130.5M1 1V241H124V218H26.5V1H1ZM146 61H170.5V239.5H145.5L146 61ZM561.5 60.5H587V239.5H561.5V214.5C545.32 231.941 533.268 238.452 507 244.5H484.5C458.179 239.015 445.422 233.424 427 218C411.937 200.342 405.792 189.292 400 167V132.5C407.197 109.472 411.705 99.0487 425.5 84C442.643 66.2562 456.566 59.8039 484.5 55.5H507C533.029 61.2386 545.066 68.307 561.5 88.5V60.5ZM484.5 79.5H507C526.837 84.4745 536.377 90.0307 550.5 105C560.762 119.143 563.44 128.057 566.5 144.5C566.741 168.605 561.931 178.779 550.5 195C537.732 209.473 529.476 215.86 507 221H484.5C462.55 215.855 452.839 209.973 439.5 195C426.721 176.623 423.002 165.596 423 144.5C426.457 126.6 429.675 117.624 439.5 105C454.82 88.2403 465.125 84.019 484.5 79.5Z" stroke="#000080" stroke-width="2"/>
</svg>
